<svg xmlns="http://www.w3.org/2000/svg" width="1072" height="1072">
    <defs>
        <filter id="a" width="1072" height="1072" x="0" y="0" filterUnits="userSpaceOnUse">
            <feOffset dy="27" in="SourceAlpha"/>
            <feGaussianBlur result="blurOut" stdDeviation="7.681"/>
            <feFlood flood-color="#444" result="floodOut"/>
            <feComposite in="floodOut" in2="blurOut" operator="atop"/>
            <feComponentTransfer>
                <feFuncA slope=".04" type="linear"/>
            </feComponentTransfer>
            <feMerge>
                <feMergeNode/>
                <feMergeNode in="SourceGraphic"/>
            </feMerge>
        </filter>
    </defs>
    <path fill="#FFF" fill-opacity=".02" fill-rule="evenodd" d="M1012.998 508.494c0-263.717-213.783-477.498-477.499-477.498-263.719 0-477.502 213.781-477.502 477.498 50.894 0 99.889 8.032 145.885 22.777-10.47 33.077-16.147 68.267-16.147 104.748 0 191.729 155.977 347.733 347.71 347.766.002.724.054 1.481.054 2.205 0-.724.052-1.481.058-2.205 191.724-.033 347.706-156.037 347.706-347.766 0-36.481-5.68-71.671-16.151-104.748 45.997-14.745 94.993-22.777 145.886-22.777zm-869.999-71.986c33.992-185.776 197.06-327.006 392.5-327.006s358.508 141.23 392.497 327.006c-32.028 4.913-63.145 12.664-93.137 22.808-60.611-102.291-172.081-171.063-299.36-171.063-127.282 0-238.75 68.772-299.36 171.063-29.995-10.144-61.106-17.895-93.14-22.808zm166.373 53.838c47.997-74.22 131.332-123.588 226.127-123.588 94.796 0 178.129 49.368 226.123 123.588-93.741 47.728-172.315 121.132-226.123 211.074-53.805-89.942-132.385-163.346-226.127-211.074zm-43.145 145.673c0-25.801 3.862-50.689 10.674-74.349 130.585 67.511 225.968 193.432 251.604 343.261-145.227-3.748-262.278-122.8-262.278-268.912zm538.541 0c0 146.112-117.05 265.164-262.277 268.912 25.635-149.829 121.022-275.75 251.603-343.261 6.813 23.66 10.674 48.548 10.674 74.349z" filter="url(#a)"/>
</svg>
